PathFileType	4	(X/Y/Z)	TVC_60_BWA03_walk_RCNL2025.trc
DataRate	CameraRate	NumFrames	NumMarkers	Units	OrigDataRate	OrigDataStartFrame	OrigNumFrames
100	100	4	27	mm	100	104	275
Frame#	Time	R_Shoulder			L_Shoulder			C7			J_Notch			R_Elbow			L_Elbow			R_Wrist			L_Wrist			R_Asis			L_Asis			R_Psis			L_Psis			Sacral			Thoracic			Sternum			R_Thigh_Lateral			R_Knee_Lateral			R_Shank_Lateral			R_Ankle_Lateral			R_Heel			R_Toe			L_Thigh_Lateral			L_Knee_Lateral			L_Shank_Lateral			L_Ankle_Lateral			L_Heel			L_Toe		
		X1	Y1	Z1	X2	Y2	Z2	X3	Y3	Z3	X4	Y4	Z4	X5	Y5	Z5	X6	Y6	Z6	X7	Y7	Z7	X8	Y8	Z8	X9	Y9	Z9	X10	Y10	Z10	X11	Y11	Z11	X12	Y12	Z12	X13	Y13	Z13	X14	Y14	Z14	X15	Y15	Z15	X16	Y16	Z16	X17	Y17	Z17	X18	Y18	Z18	X19	Y19	Z19	X20	Y20	Z20	X21	Y21	Z21	X22	Y22	Z22	X23	Y23	Z23	X24	Y24	Z24	X25	Y25	Z25	X26	Y26	Z26	X27	Y27	Z27
104	1.03000000	-939.544922	1306.430664	116.954689	-976.979126	1334.273804	-233.858719	-1017.922485	1387.236572	-56.874104	-903.595459	1262.734619	-66.491966	-976.361816	976.233704	205.805618	-1040.349365	991.702271	-278.426666	-866.947174	764.273895	217.782944	-971.730042	770.729431	-324.921310	-910.393616	901.556030	87.083328	-917.060852	907.069336	-198.471649	-1088.383789	891.742249	9.193644	-1090.201538	892.682800	-101.370857	-1089.292664	892.212524	-46.088607	-1068.080811	1176.897095	-53.207916	-867.741577	1069.743164	-57.097488	-944.719299	584.255188	173.019547	-946.229492	422.739594	112.295158	-1119.606445	296.090424	142.190720	-1271.710205	208.325455	70.370224	-1292.294067	240.532761	18.448250	-1233.154541	82.096344	61.512127	-902.213867	624.432922	-255.431351	-846.065186	442.651184	-172.976257	-874.100769	250.485367	-197.356125	-905.495300	58.566586	-116.182777	-951.930420	60.382626	-74.361504	-779.646973	43.155350	-103.334839
105	1.04000000	-930.961487	1307.441528	116.013176	-967.291443	1335.246826	-234.900269	-1008.753662	1388.297119	-58.085823	-894.642639	1263.547119	-67.348412	-971.465942	977.310242	203.848633	-1029.804443	992.642395	-280.442413	-865.483276	763.659576	217.162704	-959.911987	772.057648	-326.825592	-902.672791	902.466003	86.163193	-908.883484	907.981567	-199.578064	-1080.433105	892.601257	7.985435	-1082.205811	893.976440	-102.568268	-1081.319458	893.288849	-47.291416	-1059.277832	1178.102051	-54.558983	-859.406921	1070.368408	-57.731037	-931.122498	585.348511	171.987167	-926.757874	424.086823	111.798042	-1099.951782	297.852386	140.917435	-1252.825073	211.949692	68.726402	-1273.547485	242.924744	16.139170	-1211.806885	87.220627	63.722599	-898.105957	624.348633	-256.253693	-843.179016	442.169952	-173.473831	-872.695740	250.133347	-197.673187	-905.483032	58.518429	-116.108650	-951.913513	60.469818	-74.378510	-779.630005	43.089710	-103.277420
106	1.05000000	-922.555603	1308.375000	115.163185	-957.587219	1336.182007	-235.864578	-999.642578	1389.322998	-59.240971	-885.778076	1264.287964	-68.097336	-966.664612	978.359680	201.954193	-1019.205444	993.565979	-282.493073	-864.162476	763.074005	216.614914	-947.988678	773.385498	-328.743073	-895.114136	903.361450	85.315086	-900.869202	908.796753	-200.632538	-1072.649170	893.455444	6.801982	-1074.369141	895.227356	-103.732140	-1073.509155	894.341400	-48.465079	-1050.575439	1179.276245	-55.902905	-851.226624	1070.909912	-58.247646	-918.090149	586.630127	170.908127	-907.412048	425.745392	111.264702	-1080.232788	299.536255	139.552780	-1233.213135	214.554169	66.985916	-1254.341309	244.128677	13.787967	-1188.707397	91.896927	65.741524	-893.896790	624.312561	-257.022156	-840.391968	441.709534	-173.932831	-871.351624	249.811432	-197.979187	-905.462585	58.476601	-116.035782	-951.884705	60.569588	-74.392883	-779.609863	43.028122	-103.222656
107	1.06000000	-914.320679	1309.226929	114.398979	-947.877563	1337.075195	-236.753296	-990.592773	1390.306152	-60.339745	-877.002441	1264.954224	-68.744713	-961.952209	979.378052	200.126862	-1008.555359	994.466919	-284.573059	-862.966858	762.520294	216.144058	-935.968231	774.706146	-330.668167	-887.694092	904.236328	84.522629	-893.011658	909.521118	-201.646622	-1065.012939	894.299927	5.650448	-1066.676147	896.429504	-104.856827	-1065.844543	895.364716	-49.603189	-1041.971313	1180.410767	-57.235680	-843.189331	1071.372070	-58.662498	-905.551819	588.057373	169.795929	-888.256836	427.709656	110.710793	-1060.461182	301.110840	138.160080	-1212.893433	216.051575	65.220268	-1234.659424	244.132431	11.493921	-1164.125488	95.950157	67.462639	-889.578064	624.318542	-257.733429	-837.696899	441.266907	-174.353622	-870.067688	249.518784	-198.271805	-905.433411	58.442886	-115.960983	-951.845215	60.681339	-74.399101	-779.587646	42.973339	-103.170303
